# xmcd CD database file
#
# Track frame offsets:
#	150
#	19200
#	49108
#	64231
#	90186
#	106909
#	135804
#	138304
#	162127
#	189702
#
# Disc length: 2930 seconds
#
# Revision: 0
# Processed by: cddbd v1.5PL3 Copyright (c) Steve Scherf et al.
# Submitted via: CDex 1.51
#
DISCID=790b700a
DTITLE=Various Artist(XROGER) - 偽・水色時代
DYEAR=1997
DGENRE=Techno
TTITLE0=電子ブロック (時は今)
TTITLE1=夢操作ONE
TTITLE2=もっと！モット！underworld
TTITLE3=もっと！モット！二人の時
TTITLE4=もっと！モット！?HASHIYANSOFT
TTITLE5=The best of 次回予告
TTITLE6=あぁどうも (jehyehye:)
TTITLE7=The best of 水色時代
TTITLE8=夢操作TWO
TTITLE9=ジャングルベル
EXTD=YEAR: 1997
EXTT0=
EXTT1=
EXTT2=
EXTT3=
EXTT4=
EXTT5=
EXTT6=
EXTT7=
EXTT8=
EXTT9=
PLAYORDER=
